<?xml version="1.0" standalone="no"?>
<!DOCTYPE svg PUBLIC "-//W3C//DTD SVG 20010904//EN"
 "http://www.w3.org/TR/2001/REC-SVG-20010904/DTD/svg10.dtd">
<svg version="1.0" xmlns="http://www.w3.org/2000/svg"
 width="338.000000pt" height="293.000000pt" viewBox="0 0 338.000000 293.000000"
 preserveAspectRatio="xMidYMid meet">

<g transform="translate(0.000000,293.000000) scale(0.100000,-0.100000)"
fill="#000000" stroke="none">
<path d="M1297 2869 c-53 -12 -85 -36 -108 -80 -17 -34 -19 -60 -19 -253 l0
-215 93 44 c118 55 235 85 365 92 192 11 359 -29 565 -135 4 -2 7 95 7 216 0
211 -1 220 -22 252 -32 46 -68 71 -119 81 -58 11 -713 9 -762 -2z m577 -143
c46 -19 66 -52 66 -106 0 -48 -19 -79 -57 -99 -14 -7 -91 -11 -208 -11 l-187
0 -28 28 c-57 57 -45 152 23 186 44 21 341 23 391 2z"/>
<path d="M310 2695 l-75 -75 170 -170 170 -170 -133 0 c-152 0 -191 -11 -222
-62 -19 -32 -20 -48 -20 -751 0 -788 -2 -760 60 -792 25 -13 91 -15 437 -15
l408 1 -35 26 c-62 47 -165 156 -209 222 -58 85 -117 213 -142 308 -32 119
-37 321 -11 440 22 99 64 206 113 292 l31 54 45 -45 45 -45 -35 -74 c-43 -90
-64 -169 -76 -286 -38 -364 168 -721 502 -873 115 -52 208 -71 347 -71 143 0
228 18 362 76 l82 35 348 -347 348 -348 77 78 78 77 -1105 1108 c-608 609
-1189 1191 -1290 1295 -101 103 -187 187 -190 187 -3 0 -39 -34 -80 -75z m766
-996 c-53 -120 -60 -296 -17 -429 60 -188 213 -345 409 -418 124 -46 345 -42
461 9 l45 20 25 -26 c26 -26 26 -26 6 -41 -31 -23 -138 -53 -237 -66 -216 -29
-437 49 -599 211 -158 159 -235 371 -209 579 11 87 20 120 58 210 l25 63 29
-28 29 -29 -25 -55z"/>
<path d="M1520 2311 c-67 -13 -143 -37 -211 -67 l-60 -27 52 -53 51 -52 52 24
c85 39 163 54 275 54 126 0 207 -18 316 -70 280 -134 439 -426 404 -740 -6
-51 -21 -123 -35 -160 -13 -37 -24 -74 -24 -82 0 -7 20 -34 45 -58 l44 -44 27
60 c64 143 84 233 84 374 0 207 -68 392 -203 553 -94 112 -282 231 -432 272
-68 19 -313 29 -385 16z"/>
<path d="M2270 2273 c1 -5 25 -27 55 -51 97 -78 206 -228 268 -369 47 -106 69
-207 74 -348 8 -189 -25 -342 -109 -509 l-30 -59 138 -138 139 -139 142 0 143
0 32 29 33 29 3 731 c3 814 5 788 -62 816 -29 12 -106 15 -431 15 -217 0 -395
-3 -395 -7z m720 -223 l0 -90 -150 0 -150 0 0 90 0 90 150 0 150 0 0 -90z"/>
<path d="M1535 2101 c-38 -11 -83 -24 -99 -31 l-30 -11 429 -429 c332 -332
432 -427 441 -417 46 49 68 273 40 398 -38 171 -163 338 -317 426 -135 76
-324 103 -464 64z"/>
</g>
</svg>
