<?xml version="1.0" standalone="no"?>
<!DOCTYPE svg PUBLIC "-//W3C//DTD SVG 20010904//EN"
 "http://www.w3.org/TR/2001/REC-SVG-20010904/DTD/svg10.dtd">
<svg version="1.0" xmlns="http://www.w3.org/2000/svg"
 width="305.000000pt" height="274.000000pt" viewBox="0 0 305.000000 274.000000"
 preserveAspectRatio="xMidYMid meet">

<g transform="translate(0.000000,274.000000) scale(0.100000,-0.100000)"
fill="#000000" stroke="none">
<path d="M1414 2696 c-64 -28 -64 -27 -64 -383 l0 -323 29 -32 c26 -29 35 -33
81 -33 46 0 55 4 81 33 l29 32 0 323 c0 358 0 355 -66 383 -41 17 -50 17 -90
0z"/>
<path d="M568 2344 c-49 -26 -72 -98 -47 -147 16 -31 409 -425 441 -443 48
-25 96 -18 134 20 38 38 45 86 20 134 -18 32 -412 425 -443 441 -30 15 -73 13
-105 -5z"/>
<path d="M2245 2349 c-31 -17 -425 -411 -441 -441 -25 -48 -18 -96 20 -134 27
-27 42 -34 73 -34 21 0 50 7 63 16 41 27 420 407 436 436 50 96 -57 207 -151
157z"/>
<path d="M207 1500 c-56 -44 -56 -136 0 -180 25 -19 40 -20 349 -20 l324 0 32
29 c29 26 33 35 33 81 0 46 -4 55 -33 81 l-32 29 -324 0 c-309 0 -324 -1 -349
-20z"/>
<path d="M2008 1491 c-29 -26 -33 -35 -33 -81 0 -46 4 -55 33 -81 l32 -29 321
0 c306 0 322 1 349 20 16 11 34 36 40 55 15 46 -1 97 -40 125 -27 19 -43 20
-349 20 l-321 0 -32 -29z"/>
<path d="M965 1069 c-31 -17 -425 -411 -441 -441 -50 -95 54 -205 149 -157 31
16 425 409 443 441 25 48 18 96 -20 134 -27 27 -42 34 -72 34 -22 0 -48 -6
-59 -11z"/>
<path d="M1824 1046 c-38 -38 -45 -86 -20 -134 16 -29 395 -409 436 -436 92
-61 208 53 156 152 -18 32 -412 425 -443 441 -44 22 -92 14 -129 -23z"/>
<path d="M1414 891 c-12 -5 -31 -22 -43 -37 -20 -26 -21 -35 -21 -349 0 -308
1 -323 20 -348 45 -57 138 -56 180 3 19 27 20 43 20 349 l0 321 -27 30 c-30
34 -89 48 -129 31z"/>
</g>
</svg>
