<?xml version="1.0" standalone="no"?>
<!DOCTYPE svg PUBLIC "-//W3C//DTD SVG 20010904//EN"
 "http://www.w3.org/TR/2001/REC-SVG-20010904/DTD/svg10.dtd">
<svg version="1.0" xmlns="http://www.w3.org/2000/svg"
 width="262.000000pt" height="156.000000pt" viewBox="0 0 262.000000 156.000000"
 preserveAspectRatio="xMidYMid meet">

<g transform="translate(0.000000,156.000000) scale(0.100000,-0.100000)"
fill="#000000" stroke="none">
<path d="M105 1488 c-45 -26 -44 -8 -44 -728 0 -724 -2 -703 46 -728 33 -18
1918 -17 1953 1 26 13 507 677 516 713 3 12 -1 35 -10 50 -40 74 -484 680
-506 691 -35 18 -1925 18 -1955 1z m2098 -435 l209 -293 -209 -292 -209 -293
-892 -3 -892 -2 0 590 0 590 892 -2 892 -3 209 -292z"/>
<path d="M614 1211 c-87 -40 -137 -144 -114 -239 40 -169 253 -219 368 -88 68
78 68 188 0 270 -40 48 -98 76 -163 76 -27 0 -68 -9 -91 -19z m140 -153 c9
-12 16 -32 16 -44 0 -23 -42 -64 -65 -64 -23 0 -65 41 -65 64 0 38 28 66 65
66 24 0 39 -7 49 -22z"/>
<path d="M1190 1083 c-14 -9 -145 -137 -293 -283 -253 -251 -267 -267 -267
-302 0 -40 35 -78 73 -78 14 0 117 96 309 287 257 257 288 291 288 320 0 22
-8 38 -26 52 -32 25 -52 26 -84 4z"/>
<path d="M2087 839 c-11 -6 -25 -26 -33 -45 -12 -29 -12 -39 0 -68 39 -93 176
-66 176 34 0 70 -81 115 -143 79z"/>
<path d="M1135 696 c-101 -46 -152 -180 -106 -281 71 -158 296 -167 380 -15
45 80 26 194 -41 257 -53 50 -166 69 -233 39z m130 -151 c29 -28 31 -51 9 -83
-10 -15 -25 -22 -46 -22 -66 0 -92 69 -42 109 34 27 50 26 79 -4z"/>
</g>
</svg>
