<?xml version="1.0" standalone="no"?>
<!DOCTYPE svg PUBLIC "-//W3C//DTD SVG 20010904//EN"
 "http://www.w3.org/TR/2001/REC-SVG-20010904/DTD/svg10.dtd">
<svg version="1.0" xmlns="http://www.w3.org/2000/svg"
 width="295.000000pt" height="277.000000pt" viewBox="0 0 295.000000 277.000000"
 preserveAspectRatio="xMidYMid meet">

<g transform="translate(0.000000,277.000000) scale(0.100000,-0.100000)"
fill="#000000" stroke="none">
<path d="M1424 2681 c-17 -10 -85 -71 -150 -135 -90 -87 -125 -115 -145 -116
-15 0 -100 11 -190 25 l-163 25 -45 -22 c-62 -31 -74 -60 -108 -263 l-29 -170
-157 -85 c-185 -100 -207 -120 -214 -185 -5 -43 1 -59 78 -216 l83 -169 -83
-169 c-77 -156 -83 -173 -79 -216 9 -73 14 -77 288 -223 36 -19 70 -39 76 -46
6 -6 23 -85 39 -176 31 -186 45 -224 89 -251 39 -24 77 -24 251 1 77 11 151
20 165 20 18 0 50 -25 115 -88 182 -176 189 -182 240 -182 25 0 58 6 73 14 15
8 81 69 147 135 93 94 126 121 146 121 15 0 100 -11 190 -25 l163 -25 45 22
c30 15 51 35 62 58 10 19 31 112 46 205 l29 170 152 80 c180 95 212 123 219
189 5 44 0 60 -78 217 l-83 169 83 169 c78 157 83 173 78 217 -7 64 -33 87
-207 179 -80 43 -150 82 -156 89 -6 6 -23 85 -39 176 -31 186 -45 224 -89 251
-39 24 -77 24 -251 -1 -77 -11 -151 -20 -165 -20 -18 1 -58 32 -145 116 -66
63 -133 124 -150 135 -38 24 -91 24 -131 0z m-59 -695 c122 -72 160 -236 82
-353 -68 -101 -196 -140 -305 -93 -216 93 -198 397 28 471 48 16 146 3 195
-25z m551 -34 c18 -12 32 -44 27 -62 -2 -9 -181 -248 -396 -531 -361 -473
-395 -514 -424 -517 -25 -3 -35 2 -49 23 -14 21 -15 30 -5 52 12 27 724 967
769 1016 25 26 56 34 78 19z m-70 -726 c251 -117 149 -498 -126 -473 -143 13
-241 132 -227 275 17 168 199 270 353 198z"/>
<path d="M1149 1861 c-35 -34 -39 -44 -39 -87 1 -58 15 -88 56 -115 40 -26
113 -26 148 2 106 83 51 239 -85 239 -35 0 -48 -6 -80 -39z"/>
<path d="M1667 1109 c-59 -45 -74 -121 -34 -180 29 -43 60 -59 116 -59 37 0
49 5 82 39 34 34 39 44 39 86 0 84 -50 135 -132 135 -28 -1 -53 -8 -71 -21z"/>
</g>
</svg>
